<?xml version="1.0" standalone="no"?>
<!DOCTYPE svg PUBLIC "-//W3C//DTD SVG 20010904//EN"
 "http://www.w3.org/TR/2001/REC-SVG-20010904/DTD/svg10.dtd">
<svg version="1.0" xmlns="http://www.w3.org/2000/svg"
 width="1200.000000pt" height="1200.000000pt" viewBox="0 0 1200.000000 1200.000000"
 preserveAspectRatio="xMidYMid meet">
<metadata>
Created by potrace 1.14, written by Peter Selinger 2001-2017
</metadata>
<g transform="translate(0.000000,1200.000000) scale(0.100000,-0.100000)"
fill="#000000" stroke="none">
<path d="M0 6000 l0 -6000 6000 0 6000 0 0 6000 0 6000 -6000 0 -6000 0 0
-6000z m6495 3049 l360 -208 3 -1022 c2 -923 4 -1021 18 -1015 8 3 88 48 177
99 89 51 246 141 348 200 l185 107 215 -124 c118 -68 304 -175 414 -239 l200
-115 3 -1216 2 -1216 -50 0 -50 0 0 1183 0 1183 -177 101 c-98 56 -261 149
-361 207 -101 58 -189 106 -195 106 -7 0 -172 -92 -367 -204 l-355 -205 -3
-1175 -2 -1176 -55 0 -55 0 0 2228 0 2228 -352 205 c-194 112 -362 204 -373
204 -11 0 -179 -92 -372 -205 l-353 -204 0 -2239 0 -2238 -52 3 -53 3 -2 1325
c-2 729 -3 1413 -3 1521 l0 195 -359 207 c-197 114 -360 207 -363 207 -3 0
-104 -57 -225 -127 -121 -71 -283 -164 -361 -208 l-141 -80 -1 -1532 0 -1533
-55 0 -55 0 0 1559 c0 1235 3 1561 13 1569 6 5 71 43 142 84 559 322 675 388
683 388 5 0 169 -92 363 -204 l354 -203 3 677 c2 630 3 678 20 692 9 8 80 51
157 95 77 45 257 149 400 231 l260 150 55 -31 c30 -17 217 -124 415 -238z
m-391 -75 l46 -26 0 -81 c0 -45 -7 -590 -15 -1212 -8 -621 -19 -1564 -25
-2095 -6 -531 -12 -974 -14 -985 -2 -11 -4 158 -5 375 -1 217 -4 465 -6 550
-2 85 -7 493 -10 905 -12 1722 -15 2093 -20 2338 -3 141 -4 257 -2 257 3 0 25
-12 51 -26z m161 -90 l47 -27 -6 -281 c-4 -154 -13 -886 -22 -1626 -9 -740
-19 -1581 -22 -1870 l-7 -525 -8 640 c-4 352 -11 1182 -17 1845 -5 663 -12
1355 -15 1538 -3 182 -3 332 -1 332 2 0 25 -12 51 -26z m159 -90 l46 -26 -5
-191 c-3 -106 -10 -617 -16 -1137 -5 -520 -14 -1233 -19 -1585 -5 -352 -10
-772 -10 -934 0 -162 -2 -292 -4 -290 -5 6 -15 787 -26 2164 -5 633 -12 1347
-16 1588 -3 240 -4 437 -1 437 2 0 25 -12 51 -26z m197 -385 c-1 -151 -6 -584
-11 -964 -5 -379 -12 -953 -15 -1275 -4 -322 -8 -614 -10 -650 -2 -36 -4 -236
-6 -445 -2 -313 -3 -353 -9 -225 -4 85 -10 567 -14 1070 -3 503 -8 1059 -11
1235 -3 176 -8 603 -11 948 l-6 628 48 -24 48 -24 -3 -274z m-2080 -851 l39
-22 0 -170 c-1 -308 -47 -2767 -52 -2772 -3 -2 -8 323 -12 723 -4 400 -9 793
-11 873 -9 302 -17 1390 -10 1390 4 0 25 -10 46 -22z m161 -90 l41 -23 -7
-360 c-3 -198 -8 -452 -11 -565 -3 -113 -10 -518 -16 -900 -23 -1421 -20
-1487 -56 1373 -3 273 -3 497 2 497 4 0 25 -10 47 -22z m160 -90 l41 -23 -7
-285 c-4 -157 -11 -523 -16 -815 -27 -1528 -33 -1800 -36 -1804 -2 -2 -4 85
-4 195 0 185 -12 1130 -25 1939 -4 276 -7 764 -5 808 0 11 9 9 52 -15z m194
-343 c-4 -126 -15 -727 -26 -1335 -22 -1217 -25 -1320 -28 -1085 -1 88 -7 435
-12 770 -5 336 -11 846 -15 1135 -3 289 -8 587 -11 664 l-6 138 52 -28 52 -29
-6 -230z m2659 -335 c-3 -80 -10 -363 -15 -630 -6 -267 -15 -654 -20 -860 -5
-206 -10 -447 -10 -534 0 -88 -3 -157 -6 -154 -3 3 -11 385 -19 849 -8 464
-17 998 -21 1186 l-6 342 51 -27 52 -27 -6 -145z m152 -245 c-21 -1050 -42
-1885 -48 -1855 -4 19 -12 397 -18 840 -6 443 -14 932 -18 1088 l-6 283 48
-28 47 -28 -5 -300z m159 -105 c-4 -173 -11 -477 -16 -675 -5 -198 -12 -511
-16 -695 -3 -184 -9 -362 -13 -395 -4 -33 -12 291 -19 720 -7 429 -15 923 -19
1098 l-6 318 48 -28 47 -28 -6 -315z m125 248 c35 -20 39 -26 39 -62 1 -125
-41 -1777 -48 -1911 l-9 -160 -2 185 c-1 102 -6 401 -11 665 -19 1019 -23
1305 -15 1305 4 0 25 -10 46 -22z m-4746 -2985 c65 -21 145 -97 176 -166 50
-114 22 -263 -66 -352 -61 -61 -135 -89 -230 -89 -95 0 -169 28 -230 89 -87
88 -116 239 -67 350 25 55 90 127 137 153 76 41 179 46 280 15z m4453 -14 c34
-15 62 -31 62 -35 0 -11 -41 -74 -49 -74 -4 0 -24 9 -45 20 -121 61 -252 18
-215 -72 11 -28 68 -56 149 -73 84 -18 152 -63 171 -112 18 -49 11 -126 -16
-166 -41 -59 -94 -81 -195 -81 -71 0 -95 4 -145 28 -33 15 -70 36 -82 48 l-22
20 30 38 30 38 56 -34 c120 -72 250 -52 241 37 -4 42 -44 70 -124 88 -78 17
-161 57 -180 87 -38 57 -36 149 4 203 60 81 202 99 330 40z m-5318 -234 l0
-255 140 0 140 0 0 -50 0 -50 -190 0 -190 0 0 305 0 305 50 0 50 0 0 -255z
m1674 225 c68 -34 87 -64 93 -144 9 -104 -32 -182 -110 -209 -15 -6 -6 -23 63
-117 l80 -110 -67 0 -68 0 -70 100 -69 100 -68 0 -68 0 0 -100 0 -100 -55 0
-55 0 0 306 0 306 173 -4 c160 -3 175 -5 221 -28z m764 -17 l-3 -48 -162 -3
-163 -2 0 -80 0 -80 145 0 145 0 0 -45 0 -45 -145 0 -145 0 0 -80 0 -80 168
-2 167 -3 3 -47 3 -48 -223 0 -223 0 2 288 c1 158 2 295 2 305 1 16 18 17 217
17 l215 0 -3 -47z m477 -138 c49 -102 91 -185 94 -185 3 0 46 83 95 185 l89
185 78 0 79 0 0 -305 0 -305 -50 0 -50 0 -2 231 -3 231 -105 -206 c-140 -276
-125 -276 -264 2 l-105 207 0 -232 -1 -233 -55 0 -55 0 0 305 0 305 83 0 84 0
88 -185z m1125 -120 l0 -305 -50 0 -50 0 0 305 0 305 50 0 50 0 0 -305z m587
290 c96 -29 142 -92 143 -195 0 -77 -15 -123 -52 -159 -43 -42 -112 -61 -225
-61 l-93 0 0 -90 0 -90 -52 0 -53 0 2 302 c2 167 3 304 3 306 0 1 62 2 138 2
94 0 155 -5 189 -15z m1085 -187 c3 -181 5 -207 23 -237 29 -49 67 -73 122
-78 63 -6 110 20 140 77 22 41 23 54 23 242 l0 198 55 0 55 0 0 -188 c0 -267
-24 -338 -133 -398 -44 -24 -63 -28 -127 -28 -122 1 -202 51 -240 150 -18 49
-20 78 -20 259 l0 205 49 0 49 0 4 -202z m914 17 c48 -102 91 -185 94 -185 3
0 46 83 95 185 l88 186 79 -3 79 -3 0 -300 0 -300 -51 -3 -50 -3 -1 233 0 233
-105 -207 c-101 -201 -105 -208 -134 -208 -29 0 -33 7 -134 208 l-105 207 0
-232 -1 -233 -55 0 -55 0 0 305 0 305 84 0 83 0 89 -185z m-4391 -749 c38 -16
43 -27 20 -46 -11 -9 -22 -9 -50 1 -85 31 -172 -46 -146 -130 14 -49 40 -71
89 -78 57 -8 82 9 82 56 0 34 3 39 26 44 31 5 36 -6 32 -63 -4 -58 -37 -82
-115 -87 -103 -7 -173 58 -173 157 2 120 120 194 235 146z m-845 -21 c0 -23
-4 -25 -45 -25 l-45 0 0 -131 0 -130 -27 3 -28 3 -3 128 c-3 140 3 129 -69
130 -17 0 -23 6 -23 23 0 24 1 24 120 24 l120 0 0 -25z m384 -125 c36 -82 66
-152 66 -155 0 -3 -11 -5 -25 -5 -19 0 -29 9 -42 35 l-17 35 -78 0 -78 0 -17
-35 c-12 -25 -23 -35 -40 -35 -13 0 -23 3 -23 8 0 4 28 73 62 154 62 145 63
148 94 148 31 0 33 -2 98 -150z m766 20 l0 -130 70 0 c68 0 70 -1 70 -25 0
-25 0 -25 -95 -25 l-95 0 0 155 0 155 25 0 25 0 0 -130z m383 -22 l-2 -153
-26 -3 -25 -3 0 155 0 156 28 0 27 0 -2 -152z m359 46 l83 -107 5 104 5 104
28 3 27 3 0 -155 0 -156 -29 0 c-26 0 -41 14 -115 111 l-85 111 -3 -108 -3
-109 -27 -3 -28 -3 0 155 0 156 29 0 c26 0 41 -14 113 -106z m586 84 c-3 -21
-9 -23 -85 -26 l-83 -3 0 -39 0 -40 75 0 c73 0 75 -1 75 -25 0 -24 -2 -25 -75
-25 l-75 0 0 -40 0 -40 85 0 c84 0 85 0 85 -25 l0 -25 -110 0 -110 0 0 155 0
155 111 0 c109 0 110 0 107 -22z m512 -43 l0 -65 75 0 75 0 0 65 c0 63 1 65
25 65 l25 0 0 -155 0 -155 -25 0 c-24 0 -25 2 -25 65 l0 65 -75 0 -75 0 0 -66
0 -65 -27 3 -28 3 -3 153 -3 152 31 0 30 0 0 -65z m640 40 c0 -25 -1 -25 -80
-25 l-80 0 0 -40 0 -40 69 0 c60 0 69 -3 74 -19 7 -29 1 -31 -75 -31 l-68 0 0
-40 0 -40 85 0 c84 0 85 0 85 -25 l0 -25 -115 0 -115 0 0 155 0 155 110 0 110
0 0 -25z m425 0 c20 -19 25 -34 25 -72 -1 -49 -12 -72 -43 -89 -16 -9 -14 -14
18 -59 19 -28 35 -53 35 -57 0 -5 -13 -8 -30 -8 -25 0 -36 9 -66 55 -33 48
-41 55 -70 55 l-34 0 0 -55 c0 -52 -1 -55 -25 -55 l-25 0 0 155 0 155 95 0
c88 0 98 -2 120 -25z m455 0 c0 -25 -1 -25 -80 -25 l-80 0 0 -40 0 -40 70 0
c68 0 70 -1 70 -25 0 -24 -2 -25 -70 -25 l-70 0 0 -40 0 -40 86 0 c83 0 85 -1
82 -22 -3 -22 -7 -23 -115 -26 l-113 -3 0 156 0 155 110 0 110 0 0 -25z"/>
<path d="M3226 3533 c-75 -21 -144 -107 -154 -189 -19 -170 153 -297 305 -223
154 74 163 299 16 386 -45 26 -123 39 -167 26z"/>
<path d="M3935 3522 c-3 -3 -5 -52 -5 -110 l0 -104 111 4 c107 3 112 4 135 31
18 22 24 40 24 78 0 74 -25 95 -121 103 -82 6 -137 5 -144 -2z"/>
<path d="M6948 3524 c-5 -4 -8 -61 -8 -126 l0 -118 78 1 c133 1 183 34 184
122 1 53 -21 93 -60 108 -35 13 -185 24 -194 13z"/>
<path d="M4192 2567 c-12 -29 -22 -56 -22 -60 0 -4 23 -7 50 -7 28 0 50 2 50
5 0 8 -49 115 -53 115 -2 0 -13 -24 -25 -53z"/>
<path d="M7820 2590 l0 -51 62 3 c58 3 63 5 72 31 16 46 -1 62 -73 65 l-61 3
0 -51z"/>
</g>
</svg>
